<?xml version="1.0" encoding="UTF-8" standalone="no"?>
<svg
   version="1.1"
   id="Layer_1"
   x="0"
   y="0"
   width="440"
   height="130"
   xml:space="preserve"
   sodipodi:docname="Ubmalogo.svg"
   inkscape:version="1.1.2 (b8e25be833, 2022-02-05)"
   xmlns:inkscape="http://www.inkscape.org/namespaces/inkscape"
   xmlns:sodipodi="http://sodipodi.sourceforge.net/DTD/sodipodi-0.dtd"
   xmlns="http://www.w3.org/2000/svg"
   xmlns:svg="http://www.w3.org/2000/svg"><defs
     id="defs994" /><sodipodi:namedview
     id="namedview992"
     pagecolor="#ffffff"
     bordercolor="#666666"
     borderopacity="1.0"
     inkscape:pageshadow="2"
     inkscape:pageopacity="0.0"
     inkscape:pagecheckerboard="0"
     showgrid="false"
     showguides="true"
     inkscape:guide-bbox="true"
     inkscape:zoom="2.6659091"
     inkscape:cx="221.50043"
     inkscape:cy="155.29412"
     inkscape:window-width="1920"
     inkscape:window-height="1137"
     inkscape:window-x="-8"
     inkscape:window-y="-8"
     inkscape:window-maximized="1"
     inkscape:current-layer="g1134"><sodipodi:guide
       position="-159.7954,15.217391"
       orientation="0,-1"
       id="guide7119" /><sodipodi:guide
       position="167.63193,67.933747"
       orientation="1,0"
       id="guide7121" /></sodipodi:namedview><style
     id="style987">.st0{fill:#fff}</style><g
     inkscape:groupmode="layer"
     id="layer1"
     inkscape:label="Hintergrund"
     style="display:inline"><rect
       style="opacity:1;fill:#232e58;fill-opacity:1"
       id="rect9178"
       width="437.37427"
       height="129.78687"
       x="1.5004263"
       y="1.5004263" /></g><g
     inkscape:groupmode="layer"
     id="layer2"
     inkscape:label="Logo Ubma"
     style="display:none"><path
       class="st0"
       d="m 24.1,4 v 11.1 l 75.4,10.6 v 79.8 l 11.2,1.6 V 16.2 Z M 2,112.9 88.6,125 V 34.1 L 2,21.9 Z m 187.8,1.2 c -7.1,0 -15.7,-1.1 -22.4,-4 V 93.4 c 1.8,-0.2 4.4,-0.4 6.1,-0.4 1.8,0 4.6,0.1 6.2,0.4 l 1.2,7.4 c 2.5,0.8 6.1,1.3 10.1,1.3 8.1,0 11.7,-3.4 11.7,-9.7 C 202.7,78 168,79.8 168,56.2 c 0,-14.8 11.7,-23.1 28.8,-23.1 6.1,0 13.2,0.7 18.6,2.1 v 17.7 c -1.8,0.2 -4.6,0.5 -6.2,0.5 -1.8,0 -4.8,-0.2 -6.5,-0.5 l -0.9,-7.2 c -1.8,-0.2 -4.7,-0.5 -7.1,-0.5 -8.5,0 -11.3,3.6 -11.3,9.5 0,12.4 34.7,11.8 34.7,36 -0.4,14.6 -11.4,23.4 -28.3,23.4 z m 95,-1.2 h -54.4 c -0.1,-1.6 -0.2,-3.9 -0.2,-5.5 0,-1.6 0.1,-3.9 0.2,-5.5 l 8,-1.2 V 46.2 l -8,-1.2 c -0.1,-1.6 -0.2,-3.9 -0.2,-5.5 0,-1.6 0.1,-3.9 0.2,-5.5 H 261 c 0.1,1.6 0.2,3.9 0.2,5.5 0,1.6 -0.1,3.9 -0.2,5.5 l -8.1,1.2 v 54.7 H 271 l 0.9,-7.4 c 1.8,-0.2 4.8,-0.3 6.5,-0.3 1.8,0 4.4,0.1 6.2,0.3 v 19.4 z m 80.1,-67.8 -6.7,1.2 v 37.6 c 0,21.2 -10.2,30.2 -29.5,30.2 -20.2,0 -29.5,-9 -29.5,-30.2 V 46.3 l -6.7,-1.2 c -0.1,-1.6 -0.2,-3.9 -0.2,-5.5 0,-1.6 0.1,-3.9 0.2,-5.5 h 27.6 c 0.2,1.6 0.4,3.9 0.4,5.5 0,1.6 -0.1,3.9 -0.4,5.5 l -6.3,1.2 v 37.6 c 0,12.6 3.7,17.4 15.1,17.4 11.3,0 15.3,-4.8 15.3,-17.4 V 46.3 l -6.3,-1.2 c -0.2,-1.6 -0.4,-3.9 -0.4,-5.5 0,-1.6 0.1,-3.9 0.4,-5.5 h 26.9 c 0.2,1.6 0.4,3.9 0.4,5.5 0.1,1.6 0,3.9 -0.3,5.5 z m 45.1,68.5 c -8.2,0 -22.3,-0.2 -31.8,-0.7 -0.1,-1.6 -0.2,-3.9 -0.2,-5.5 0,-1.6 0.1,-3.9 0.2,-5.5 l 8,-1.2 V 46.2 l -8,-1.2 c -0.1,-1.6 -0.2,-3.9 -0.2,-5.5 0,-1.6 0.1,-3.9 0.2,-5.5 9.7,-0.5 20.6,-0.7 30.6,-0.7 18,0 27.9,6.1 27.9,20.8 0,8.1 -4.7,14.1 -10.8,17 V 72 c 8.3,2.7 13,9.2 13,18.4 0.1,17 -12.3,23.2 -28.9,23.2 z m -0.3,-69 c -2.5,0 -6.3,0.1 -9.2,0.2 v 22.3 h 10.8 c 6.5,0 10.8,-3.7 10.8,-11.6 -0.1,-7.6 -4.4,-10.9 -12.4,-10.9 z m 1.6,33.6 h -10.9 v 23.9 c 2.2,0.1 7.5,0.2 10.1,0.2 9.2,0 13.4,-3.9 13.4,-12.5 0,-8 -4.8,-11.6 -12.6,-11.6 z"
       id="path989" /></g><g
     inkscape:groupmode="layer"
     id="g1134"
     inkscape:label="Logo UBMA"
     style="display:inline"><path
       id="path1132"
       style="opacity:1;mix-blend-mode:screen;fill:#ffffff;fill-opacity:1"
       class="st0"
       d="M 24.099609,4 V 15.099609 L 99.5,25.699219 V 105.5 l 11.19922,1.59961 V 16.199219 Z M 2,21.900391 V 112.90039 L 88.599609,125 V 34.099609 Z M 424.1582,85.3125 c -0.82624,0.01716 -0.64742,0.02716 -0.90234,0.05859 9.6e-4,0.0031 9.9e-4,0.0067 0.002,0.0098 0.3647,-0.02303 0.72805,-0.05459 1.09571,-0.05859 -0.0637,7.27e-4 -0.13302,-0.01106 -0.19532,-0.0098 z" /><path
       id="text5976"
       style="font-style:normal;font-weight:normal;font-size:97.668px;line-height:1.25;font-family:sans-serif;fill:#ffffff;fill-opacity:1;stroke:none;stroke-width:2.44169"
       d="m 460.83398,-93.154297 -27.24804,70.027344 h 8.88672 l 8.30273,-21.583985 h 27.64063 l 8.39843,21.583985 h 9.08399 l -27.15235,-70.027344 z m -241.92187,0.292969 v 44.927734 c 0,7.748328 2.24555,13.998777 6.73828,18.751953 3.95117,4.122959 9.54101,6.430748 16.76563,6.927735 -0.0559,-1.698146 0.42514,-3.103089 0.95898,-3.066406 0.39548,0.02717 0.77084,1.013428 0.96094,3.15039 0.37773,0.0092 0.75461,0.01953 1.14062,0.01953 6.12053,0 11.19939,-1.106504 15.23633,-3.320312 4.03694,-2.27892 7.03297,-5.340033 8.98633,-9.181641 1.95336,-3.90672 2.92969,-8.267649 2.92969,-13.085937 v -45.123047 h -8.69336 v 45.123047 c 0,5.274072 -1.43195,9.602457 -4.29688,12.988281 -2.79981,3.320712 -7.35796,4.982422 -13.67383,4.982422 -6.12052,0 -10.71122,-1.564077 -13.77148,-4.689453 -2.99515,-3.125376 -4.49219,-7.51885 -4.49219,-13.183594 v -45.220703 z m 72.07812,0 v 69.734375 h 24.51563 c 7.48788,0 13.38034,-1.724845 17.67773,-5.175781 4.36251,-3.450936 6.54297,-8.334527 6.54297,-14.650391 0,-3.58116 -0.68343,-6.512096 -2.05078,-8.791016 -1.36735,-2.27892 -3.25492,-4.036309 -5.66406,-5.273437 -2.34403,-1.237128 -4.98207,-2.115823 -7.91211,-2.636719 v -0.488281 c 4.29739,-0.781344 7.58631,-2.506189 9.86523,-5.175781 2.27892,-2.734704 3.41797,-6.153804 3.41797,-10.25586 0,-6.315864 -2.2475,-10.776379 -6.74023,-13.380859 -4.49273,-2.60448 -11.06862,-3.90625 -19.72852,-3.90625 z m 63.48438,0 v 69.734375 h 8.10547 v -42.289063 c 0,-3.711384 -0.0651,-7.26066 -0.19531,-10.646484 -0.13023,-3.450936 -0.29295,-6.186606 -0.48829,-8.205078 h 0.39063 l 22.95312,61.140625 h 7.22657 l 23.24609,-61.042969 h 0.39063 c -0.13023,2.083584 -0.29295,4.78671 -0.48829,8.107422 -0.13022,3.320712 -0.19531,6.67277 -0.19531,10.058594 v 42.876953 h 8.69141 v -69.734375 h -12.89258 l -21.87695,57.134766 h -0.39063 l -21.48633,-57.134766 z m -54.69336,7.519531 h 11.52344 c 5.92519,0 10.22298,0.846151 12.89258,2.539063 2.7347,1.6278 4.10156,4.36347 4.10156,8.205078 0,3.776496 -1.13905,6.64039 -3.41797,8.59375 -2.21381,1.888248 -6.28379,2.833984 -12.20898,2.833984 h -12.89063 z m 164.86328,1.269531 c 0.26045,0.781344 0.58589,1.922346 0.97656,3.419922 0.45579,1.432464 0.91141,2.831867 1.36719,4.199219 0.45579,1.367352 0.78123,2.311135 0.97656,2.832031 l 7.8125,21.095703 h -22.07226 l 7.91015,-21.095703 c 0.39068,-1.106904 0.84825,-2.603939 1.36915,-4.492187 0.586,-1.95336 1.13926,-3.940513 1.66015,-5.958985 z m -164.86328,28.226563 h 13.37891 c 6.44608,0 10.9066,1.139049 13.38086,3.417969 2.53936,2.213808 3.80859,5.144743 3.80859,8.791015 0,3.90672 -1.20414,7.063513 -3.61328,9.472657 -2.40915,2.409143 -6.70694,3.615234 -12.89258,3.615234 h -14.0625 z" /><text
       xml:space="preserve"
       style="font-style:normal;font-weight:normal;font-size:90.3751px;line-height:2.25;font-family:sans-serif;letter-spacing:0px;fill:#ffffff;fill-opacity:1;stroke:none;stroke-width:2.25937"
       x="160.49725"
       y="113.83486"
       id="text11496"><tspan
         sodipodi:role="line"
         id="tspan11494"
         x="160.49725"
         y="113.83486"
         style="font-style:normal;font-variant:normal;font-weight:bold;font-stretch:normal;font-family:sans-serif;-inkscape-font-specification:'sans-serif Bold';stroke-width:2.25937">UBMA</tspan></text></g></svg>
