<?xml version="1.0" encoding="UTF-8" standalone="no"?>
<svg
   version="1.1"
   id="Ebene_1"
   x="0"
   y="0"
   viewBox="0 0 680 120"
   width="680"
   height="120"
   xml:space="preserve"
   sodipodi:docname="viewerControlIcons.svg"
   inkscape:version="1.1.2 (b8e25be833, 2022-02-05)"
   xmlns:inkscape="http://www.inkscape.org/namespaces/inkscape"
   xmlns:sodipodi="http://sodipodi.sourceforge.net/DTD/sodipodi-0.dtd"
   xmlns="http://www.w3.org/2000/svg"
   xmlns:svg="http://www.w3.org/2000/svg"><defs
     id="defs1176" /><sodipodi:namedview
     id="namedview1174"
     pagecolor="#ffffff"
     bordercolor="#666666"
     borderopacity="1.0"
     inkscape:pageshadow="2"
     inkscape:pageopacity="0.0"
     inkscape:pagecheckerboard="0"
     showgrid="false"
     inkscape:zoom="4.7958478"
     inkscape:cx="124.37843"
     inkscape:cy="60.051948"
     inkscape:window-width="1920"
     inkscape:window-height="1137"
     inkscape:window-x="-8"
     inkscape:window-y="-8"
     inkscape:window-maximized="1"
     inkscape:current-layer="Ebene_1" /><style
     id="style1001">.st0{fill:none;stroke:#278;stroke-width:2;stroke-linejoin:round;stroke-miterlimit:10}.st0,.st1,.st2{stroke-linecap:round}.st1{fill:none;stroke:#fff;stroke-width:1.5;stroke-linejoin:round;stroke-miterlimit:10}.st2{stroke:#278;stroke-width:2;stroke-dasharray:5}.st2,.st3,.st4{fill:none;stroke-linejoin:round;stroke-miterlimit:10}.st3{stroke:#c00;stroke-width:2;stroke-linecap:round}.st4{stroke:#fff;stroke-width:1.5}.st5{fill:#fff}.st6,.st9{fill:none;stroke:#fff;stroke-width:1.5;stroke-miterlimit:10}.st9{stroke-linecap:round}.st10,.st12{opacity:.5;fill:#fff;enable-background:new}.st12{opacity:.6}.st16{fill:none;stroke:#c00;stroke-width:1.5;stroke-linejoin:round;stroke-miterlimit:10}</style><path
     class="st0"
     d="M22.5 20.5c.9.9 2.1.9 2.9.1l4-4c1.2-1.2 1.2-3.1 0-4.2l-1.8-1.8c-1.2-1.2-3.1-1.2-4.2 0l-4 4c-.8.8-.8 2.1 0 2.8l.1.1M17.5 19.5c-.9-.9-2.1-.9-2.9-.1l-4 4c-1.2 1.2-1.2 3.1 0 4.2l1.8 1.8c1.2 1.2 3.1 1.2 4.2 0l4-4c.8-.8.8-2.1 0-2.8l-.1-.1M16.1 23.9l7.8-7.8"
     id="path1003"
     style="stroke:#232e58;stroke-opacity:1" /><circle
     class="st0"
     cx="219.7"
     cy="12.2"
     r="2.6"
     id="circle1005"
     style="stroke:#232e58;stroke-opacity:1" /><path
     class="st0"
     d="M222.5 12.1h8.5M209 12.1h8"
     id="path1007"
     style="stroke:#232e58;stroke-opacity:1" /><circle
     class="st0"
     cx="214.6"
     cy="20"
     r="2.6"
     id="circle1009"
     style="stroke:#232e58;stroke-opacity:1" /><path
     class="st0"
     d="M217 20.1h14M209 20.1h3"
     id="path1011"
     style="stroke:#232e58;stroke-opacity:1" /><circle
     class="st0"
     cx="223.6"
     cy="27.8"
     r="2.6"
     id="circle1013"
     style="stroke:#232e58;stroke-opacity:1" /><path
     class="st0"
     d="M226 27.6h5M209 27.6h12"
     id="path1015"
     style="stroke:#232e58;stroke-opacity:1" /><path
     class="st1"
     d="M345.2 102.2c.4.4 1 .4 1.4 0l1.9-1.9c.6-.6.6-1.5 0-2.1l-.9-.9c-.6-.6-1.5-.6-2.1 0l-1.9 1.9c-.4.4-.4 1 0 1.4M342.8 101.8c-.4-.4-1-.4-1.4 0l-1.9 1.9c-.6.6-.6 1.5 0 2.1l.9.9c.6.6 1.5.6 2.1 0l1.9-1.9c.4-.4.4-1 0-1.4M342.1 103.9l3.8-3.8M468.2 102.2c.4.4 1 .4 1.4 0l1.9-1.9c.6-.6.6-1.5 0-2.1l-.9-.9c-.6-.6-1.5-.6-2.1 0l-1.9 1.9c-.4.4-.4 1 0 1.4M465.8 101.8c-.4-.4-1-.4-1.4 0l-1.9 1.9c-.6.6-.6 1.5 0 2.1l.9.9c.6.6 1.5.6 2.1 0l1.9-1.9c.4-.4.4-1 0-1.4M465.1 103.9l3.8-3.8M385.2 102.2c.4.4 1 .4 1.4 0l1.9-1.9c.6-.6.6-1.5 0-2.1l-.9-.9c-.6-.6-1.5-.6-2.1 0l-1.9 1.9c-.4.4-.4 1 0 1.4M382.8 101.8c-.4-.4-1-.4-1.4 0l-1.9 1.9c-.6.6-.6 1.5 0 2.1l.9.9c.6.6 1.5.6 2.1 0l1.9-1.9c.4-.4.4-1 0-1.4M382.1 103.9l3.8-3.8"
     id="path1017" /><path
     class="st2"
     d="M259.1 29.5c-4-.5-7.2-3.9-7.2-8 0-1.3.3-2.5.9-3.6"
     id="path1019"
     style="stroke:#232e58;stroke-opacity:1" /><path
     class="st0"
     d="M259.1 13.4h.9c4.5 0 8.1 3.6 8.1 8.1 0 3.6-2.4 6.7-5.7 7.7"
     id="path1021"
     style="stroke:#232e58;stroke-opacity:1" /><path
     class="st0"
     d="M261.2 10.5l-4.2 3 4.2 3"
     id="path1023"
     style="stroke:#232e58;stroke-opacity:1" /><path
     class="st2"
     d="M260.9 69.5c4-.5 7.2-3.9 7.2-8 0-1.3-.3-2.5-.9-3.6"
     id="path1025"
     style="stroke:#232e58;stroke-opacity:1" /><path
     class="st0"
     d="M260.9 53.4h-.9c-4.5 0-8.1 3.6-8.1 8.1 0 3.6 2.4 6.7 5.7 7.7"
     id="path1027"
     style="stroke:#232e58;stroke-opacity:1" /><path
     class="st0"
     d="M258.8 50.5l4.2 3-4.2 3M349.8 10.2l-7.4 7.4M342 10.2h7.8V18M330.2 29.8l7.4-7.4M338 29.8h-7.8V22M583.8 56.1l-7.4 7.4M576 56.1h7.8v7.8M300 9.6v10.1M294.5 15.1l5.5-5.5 5.5 5.5M296.3 30.4v-7.8l7.4 7.3v-7.3"
     id="path1029"
     style="stroke:#232e58;stroke-opacity:1" /><circle
     class="st0"
     cx="380"
     cy="20"
     r="10.5"
     id="circle1031"
     style="stroke:#232e58;stroke-opacity:1" /><path
     class="st0"
     d="M375.5 20h9M380 24.5v-9"
     id="path1033"
     style="stroke:#232e58;stroke-opacity:1" /><circle
     class="st0"
     cx="420"
     cy="20"
     r="10.5"
     id="circle1035"
     style="stroke:#232e58;stroke-opacity:1" /><path
     class="st0"
     d="M415.5 20h9M70 25.7v1.7c0 1.4-1.2 2.6-2.6 2.6H52.6c-1.4 0-2.6-1.2-2.6-2.6v-1.7M60 25.6V10M66.4 19.2L60 25.6l-6.4-6.4M100 12.9c0-2.1 5.7-3.8 12.6-3.8v18.1c-7 0-12.6 1.7-12.6 3.8 0-2.1-5.7-3.8-12.6-3.8V9c6.9 0 12.6 1.7 12.6 3.9zM100 12.9v17.9M97.3 15.3c-1.8-.7-4.3-1.2-7.1-1.4M97.3 18.6c-1.8-.7-4.3-1.2-7.1-1.4M97.3 21.9c-1.8-.7-4.3-1.2-7.1-1.4M97.3 25.2c-1.8-.7-4.3-1.2-7.1-1.4M102.7 15.3c1.8-.7 4.3-1.2 7.1-1.4M102.7 18.6c1.8-.7 4.3-1.2 7.1-1.4M102.7 21.9c1.8-.7 4.3-1.2 7.1-1.4M102.7 25.2c1.8-.7 4.3-1.2 7.1-1.4M169.5 10.1h4.7v4.7h-4.7zM177.6 10.1h4.7v4.7h-4.7zM185.8 10.1h4.7v4.7h-4.7zM169.5 17.6h4.7v4.7h-4.7zM177.6 17.6h4.7v4.7h-4.7zM185.8 17.6h4.7v4.7h-4.7zM169.5 25.2h4.7v4.7h-4.7zM177.6 25.2h4.7v4.7h-4.7zM185.8 25.2h4.7v4.7h-4.7z"
     id="path1037"
     style="stroke:#232e58;stroke-opacity:1" /><path
     class="st3"
     d="M62.5 76.7v8.2l-9.7 9.8H35.1v7.8L17.5 80l17.6-22.5v7.8h27.4z"
     id="path1039"
     style="stroke:#232e58;stroke-opacity:1" /><path
     class="st3"
     d="M52.4 94.2v-9.6H62M103.4 63v4.4L96.6 60l6.8-7.4V57"
     id="path1041"
     style="stroke:#232e58;stroke-opacity:1" /><path
     class="st3"
     d="M107.4 52.6v14.8l-6.7-7.4zM99.3 63v4.4L92.6 60l6.7-7.4V57M105 92.6v14.8l-6.8-7.4zM95 92.6v14.8M177.5 76.7v8.2l9.7 9.8h17.7v7.8L222.5 80l-17.6-22.5v7.8h-27.4z"
     id="path1043"
     style="stroke:#232e58;stroke-opacity:1" /><path
     class="st3"
     d="M187.6 94.2v-9.6H178M136.6 62.9l-.1 4.4 6.8-7.4-6.7-7.4v4.4"
     id="path1045"
     style="stroke:#232e58;stroke-opacity:1" /><path
     class="st3"
     d="M132.6 52.4l-.1 14.9 6.8-7.4zM140.6 62.9v4.4l6.8-7.4-6.7-7.4v4.4M135 92.6v14.8l6.8-7.4zM145 92.6v14.8"
     id="path1047"
     style="stroke:#232e58;stroke-opacity:1" /><path
     class="st1"
     d="M377.1 68.4h-3.4c-.8 0-1.5-.7-1.5-1.5V53.4"
     id="path1049" /><path
     class="st1"
     d="M386.2 51.6h-12.5c-.8 0-1.5.7-1.5 1.5s.7 1.5 1.5 1.5h12.5v2.3"
     id="path1051" /><circle
     class="st1"
     cx="383.2"
     cy="64"
     r="4.4"
     id="circle1053" /><path
     class="st1"
     d="M383.2 65.9v-3.7M381.8 64.4l1.4 1.5 1.5-1.5M343.2 51.6h-9.8c-.8 0-1.5.7-1.5 1.5V67c0 .8.7 1.5 1.5 1.5h4.4"
     id="path1055" /><circle
     class="st1"
     cx="343.5"
     cy="64"
     r="4.4"
     id="circle1057" /><path
     class="st1"
     d="M343.5 65.9v-3.7M342 64.4l1.5 1.5 1.5-1.5M335.1 65.5h.5M335.1 54.7h7.6M335.1 57.4h4.3M335.1 60.1h1.6M335.1 62.8h.3M377.1 108.4h-3.4c-.8 0-1.5-.7-1.5-1.5V93.4"
     id="path1059" /><path
     class="st1"
     d="M386.2 91.6h-12.5c-.8 0-1.5.7-1.5 1.5s.7 1.5 1.5 1.5h12.5M343.2 91.6h-9.8c-.8 0-1.5.7-1.5 1.5V107c0 .8.7 1.5 1.5 1.5h4.4M335.1 105.5h.5M335.1 94.7h7.6M335.1 97.4h5.3M335.1 100.1h2.6M335.1 102.8h1.3M303 51.5v5M297.8 51.5v17M307.4 51.5h-12.6c-2.5 0-4.5 2-4.5 4.5s2 4.5 4.5 4.5h3"
     id="path1061" /><circle
     class="st1"
     cx="305.1"
     cy="63.7"
     r="4.4"
     id="circle1063" /><path
     class="st1"
     d="M305.1 65.6v-3.7M303.7 64.1l1.4 1.5 1.5-1.5"
     id="path1065" /><path
     class="st0"
     d="M272 98.2v4.5l-5.3 5.3H257v4.3l-9.6-12.3 9.6-12.3V92h15v6.2z"
     id="path1067"
     style="stroke:#232e58;stroke-opacity:1" /><path
     class="st0"
     d="M267 108v-5h5M288 98.2v4.5l5.3 5.3h9.7v4.3l9.6-12.3-9.6-12.3V92h-15z"
     id="path1069"
     style="stroke:#232e58;stroke-opacity:1" /><path
     class="st0"
     d="M293 108v-5h-5"
     id="path1071"
     style="stroke:#232e58;stroke-opacity:1" /><path
     class="st4"
     d="M428 52.7l-16.4 6.8L418 62l10-9.3z"
     id="path1073" /><path
     class="st4"
     d="M428 52.7l-2.9 13.2L418 62zM418 62v5.7l2.5-4.3"
     id="path1075" /><path
     class="st1"
     d="M428.2 102.2c.4.4 1 .4 1.4 0l1.9-1.9c.6-.6.6-1.5 0-2.1l-.9-.9c-.6-.6-1.5-.6-2.1 0l-1.9 1.9c-.4.4-.4 1 0 1.4M425.8 101.8c-.4-.4-1-.4-1.4 0l-1.9 1.9c-.6.6-.6 1.5 0 2.1l.9.9c.6.6 1.5.6 2.1 0l1.9-1.9c.4-.4.4-1 0-1.4M425.1 103.9l3.8-3.8"
     id="path1077" /><ellipse
     class="st1"
     cx="420.4"
     cy="93.8"
     rx="7.9"
     ry="3.3"
     id="ellipse1079" /><path
     class="st1"
     d="M421.7 100.5h-1.2c-4.4 0-7.9-1.5-7.9-3.3M418.5 104.2c-3.4-.4-6-1.7-6-3.2"
     id="path1081" /><path
     class="st1"
     d="M420.4 108c-4.4 0-7.9-1.5-7.9-3.3V93.8M461 101.1h-8.3v-8.9h5M461.3 92.2h5v2"
     id="path1083" /><path
     class="st1"
     d="M457.7 91.5h3.7V93h-3.7zM460.9 101.1h-8.2c-.4 0-.7.3-.7.7 0 .4.3.7.7.7h6.4M459.1 102.6v4.4M454.6 107l2.2-4.4M459.1 90v1.5M468.3 59.8h-7v-8.7h4.4l2.6 2.6z"
     id="path1085" /><path
     class="st1"
     d="M465.7 51.1v2.6h2.6M468.3 71.2h-7v-8.8h4.4l2.6 2.6z"
     id="path1087" /><path
     class="st1"
     d="M465.7 62.4V65h2.6M452.6 51.1v.8M452.6 56.3v.9M452.6 53.7v.9h.8M452.6 58.9v.9M452.6 61.6v.8M452.6 64.2v.8M452.6 66.8v.9h.8M455.2 54.6h.9M457.8 54.6h.9M460.4 54.6h.9M455.2 67.7h.9M457.8 67.7h.9M460.4 67.7h.9"
     id="path1089" /><circle
     class="st1"
     cx="459.9"
     cy="20"
     r="8"
     id="circle1091" /><path
     class="st1"
     d="M458.3 24.4h3.9M459 18.6h1.2V24"
     id="path1093" /><path
     class="st4"
     d="M459.9 15.7c-.2 0-.3.1-.3.3 0 .2.1.3.3.3.2 0 .3-.1.3-.3s-.1-.3-.3-.3z"
     id="path1095" /><circle
     class="st5"
     cx="499.6"
     cy="20"
     r="8"
     id="circle1097" /><path
     class="st5"
     d="M499.6 26.5v-13c3.6 0 6.5 2.9 6.5 6.5s-2.9 6.5-6.5 6.5z"
     id="path1099" /><path
     class="st6"
     d="M490 52.3h19.2v17.5H490V52.3z"
     id="path1101" /><path
     class="st5"
     d="M490.8 52.5h4.4V70h-4.4V52.5z"
     id="path1103" /><path
     d="M495.2 52.5h4.4V70h-4.4V52.5z"
     opacity=".66"
     fill="#fff"
     id="path1105" /><path
     d="M499.6 52.5h4.4V70h-4.4V52.5z"
     opacity=".33"
     fill="#fff"
     id="path1107" /><path
     class="st9"
     d="M499.6 90.3v.9M499.6 108.8v.9"
     id="path1109" /><circle
     class="st5"
     cx="499.6"
     cy="100"
     r="5.5"
     id="circle1111" /><path
     class="st9"
     d="M506.4 93.2l-.5.6M493.4 106.2l-.6.6M506.4 106.8l-.5-.6M493.4 93.8l-.6-.6M509.3 100h-.9M490.8 100h-.9"
     id="path1113" /><path
     class="st5"
     d="M531.3 12h3.8v3.8h-3.8V12z"
     id="path1115" /><path
     class="st10"
     d="M537.4 12h3.8v3.8h-3.8V12z"
     id="path1117" /><path
     d="M543.5 12h3.8v3.8h-3.8V12z"
     opacity=".3"
     fill="#fff"
     id="path1119" /><path
     class="st12"
     d="M531.3 18.1h3.8v3.8h-3.8v-3.8z"
     id="path1121" /><path
     d="M537.4 18.1h3.8v3.8h-3.8v-3.8z"
     opacity=".2"
     fill="#fff"
     id="path1123" /><path
     class="st12"
     d="M543.5 18.1h3.8v3.8h-3.8v-3.8z"
     id="path1125" /><path
     d="M531.3 24.2h3.8V28h-3.8v-3.8z"
     opacity=".4"
     fill="#fff"
     id="path1127" /><path
     class="st10"
     d="M537.4 24.2h3.8V28h-3.8v-3.8z"
     id="path1129" /><path
     class="st5"
     d="M543.5 24.2h3.8V28h-3.8v-3.8z"
     id="path1131" /><path
     class="st6"
     d="M532.1 54.5h14.5v13.1h-14.5V54.5z"
     id="path1133" /><path
     class="st1"
     d="M540.8 92.5l-3.4 2.4 3.4 2.4"
     id="path1135" /><path
     class="st1"
     d="M539.3 94.7c3.5 0 6.4 2.9 6.4 6.4s-2.9 6.4-6.4 6.4-6.4-2.9-6.4-6.4"
     id="path1137" /><path
     class="st5"
     d="M532.1 67.7V54.5h14.5"
     id="path1139" /><circle
     class="st0"
     cx="577.4"
     cy="18.6"
     r="8.2"
     id="circle1141"
     style="stroke:#232e58;stroke-opacity:1" /><path
     class="st0"
     d="M589.2 30.5l-6.1-6.1M621.8 99h-11M616.7 93.7l5.5 5.5-5.5 5.5"
     id="path1143"
     style="stroke:#232e58;stroke-opacity:1" /><path
     class="st0"
     d="M613 92.9V88h10.7l5.3 5.3V110h-16v-5"
     id="path1145"
     style="stroke:#232e58;stroke-opacity:1" /><path
     class="st0"
     d="M629 93h-5v-5"
     id="path1147"
     style="stroke:#232e58;stroke-opacity:1" /><path
     d="M624.3 24.3c-1.6 1.6-3.9 2.6-6.4 2.6-5 0-9-4-9-9s4-9 9-9 9 4 9 9c0 2.5-1 4.8-2.6 6.4"
     fill="none"
     stroke="#278"
     stroke-width="1.895"
     stroke-linejoin="round"
     stroke-miterlimit="10"
     id="path1149"
     style="stroke:#232e58;stroke-opacity:1" /><path
     class="st0"
     d="M624.5 24.5l6.4 6.4M611.9 18.9v-3h12v3M617.9 30v2M617.9 15.9v8M615.4 32h5"
     id="path1151"
     style="stroke:#232e58;stroke-opacity:1" /><g
     id="g1159"
     style="stroke:#232e58;stroke-opacity:1"><path
       class="st16"
       d="M589.4 104.5l-5 2-2 5-14-14v-7h7z"
       id="path1153"
       style="stroke:#232e58;stroke-opacity:1" /><path
       fill="none"
       stroke="#c00"
       stroke-width="1.5"
       stroke-linecap="round"
       stroke-linejoin="round"
       stroke-miterlimit="10"
       d="M571.4 87.5h7l13 13-1.5.5"
       id="path1155"
       style="stroke:#232e58;stroke-opacity:1" /><circle
       class="st16"
       cx="572.9"
       cy="95"
       r="1.5"
       id="circle1157"
       style="stroke:#232e58;stroke-opacity:1" /></g><path
     class="st0"
     d="M624.6 69.4l-9.4-9.4 9.4-9.4"
     id="path1161"
     style="stroke:#232e58;stroke-opacity:1" /><g
     id="g1167"
     style="fill:none;fill-opacity:1;stroke-width:1.0015748;stroke-miterlimit:4;stroke-dasharray:none;stroke:#232e58;stroke-opacity:1"><path
       class="st0"
       d="M144.7 23.5c-1.7 1.7-4.1 2.8-6.7 2.8-5.2 0-9.5-4.3-9.5-9.5s4.3-9.5 9.5-9.5 9.5 4.3 9.5 9.5c0 2.6-1.1 5-2.8 6.7M144.7 23.5l6.8 6.8"
       id="path1163"
       style="fill:none;fill-opacity:1;stroke-width:1.0015748;stroke-miterlimit:4;stroke-dasharray:none;stroke:#232e58;stroke-opacity:1" /><path
       class="st0"
       d="M132.5 18.3v-3h12v3M138.5 30.3v2M138.5 15.3v7M136 32.3h5"
       id="path1165"
       style="fill:none;fill-opacity:1;stroke-width:1.0015748;stroke-miterlimit:4;stroke-dasharray:none;stroke:#232e58;stroke-opacity:1" /></g><g
     id="g1171"><path
       class="st1"
       d="M660.2 93.6v15.1M657.3 108.7h5.8M649.5 99.7l3.4-8 3.4 8M661.6 92.1c0 .8-.7 1.5-1.5 1.5s-1.5-.7-1.5-1.5.7-1.5 1.5-1.5c.9.1 1.5.7 1.5 1.5zM652.9 103.3c1.9 0 3.4-1.5 3.4-3.6h-6.8c0 2.1 1.5 3.6 3.4 3.6zM671.8 99.7l-3.4-8-3.4 8M668.4 103.3c-1.9 0-3.4-1.5-3.4-3.6h6.8c0 2.1-1.5 3.6-3.4 3.6zM658.8 91.7h-7.4M661.6 91.7h8.3"
       id="path1169" /></g><path
     style="fill:none;fill-opacity:1;stroke:#232e58;stroke-width:0.208842;stroke-miterlimit:4;stroke-dasharray:none;stroke-opacity:1"
     d="m 218.00533,15.161692 c -0.46958,-0.265955 -1.03171,-0.8302 -1.29491,-1.29978 l -0.46511,-0.829805 -3.89558,-0.104257 c -3.41381,-0.09136 -3.924,-0.149385 -4.12538,-0.469156 -0.1674,-0.265825 -0.16736,-0.463973 1.7e-4,-0.729798 0.2036,-0.323067 0.68164,-0.37137 4.16987,-0.42135 l 3.93991,-0.05645 0.41636,-0.772304 c 0.61157,-1.1343735 1.80974,-1.7582808 3.18782,-1.6599459 1.23476,0.088108 1.96946,0.5279495 2.71603,1.6260119 l 0.48315,0.710625 4.18602,0.104257 c 3.69074,0.09192 4.21321,0.147431 4.41585,0.469156 0.16746,0.265861 0.16742,0.463937 -1.4e-4,0.729798 -0.2045,0.324467 -0.69273,0.371145 -4.40631,0.42127 l -4.17633,0.05637 -0.24721,0.596802 c -0.77606,1.87358 -3.10568,2.647184 -4.90421,1.628555 z m 2.96707,-1.940549 c 0.60361,-0.675537 0.59524,-1.374544 -0.0251,-2.095735 -0.36823,-0.428089 -0.68461,-0.574614 -1.24072,-0.574614 -1.05867,0 -1.60124,0.558162 -1.60124,1.647258 0,1.683207 1.72668,2.299361 2.86706,1.023091 z"
     id="path2246" /><path
     style="fill:none;fill-opacity:1;stroke:#232e58;stroke-width:0.208842;stroke-miterlimit:4;stroke-dasharray:none;stroke-opacity:1"
     d="m 218.33158,15.069793 c -0.39163,-0.192899 -0.99849,-0.757085 -1.34857,-1.253747 -0.35008,-0.496662 -0.82722,-0.943351 -1.0603,-0.992642 -0.23309,-0.04929 -1.94389,-0.116328 -3.80178,-0.148972 -2.355,-0.04138 -3.4569,-0.138285 -3.63856,-0.319995 -0.58962,-0.589764 0.1793,-0.75485 4.0685,-0.8735 l 3.83317,-0.11694 0.71292,-0.938312 c 0.85566,-1.1261846 1.96489,-1.5995559 3.20763,-1.3688818 0.61212,0.1136201 1.09207,0.430138 1.86522,1.2300898 l 1.04103,1.077104 4.01541,0.114663 c 4.06899,0.116192 4.85441,0.276616 4.26075,0.870272 -0.17758,0.177578 -1.50552,0.281464 -4.36836,0.341743 l -4.11323,0.0866 -0.42393,0.857211 c -0.29941,0.605405 -0.6952,0.995027 -1.3474,1.326368 -1.09459,0.556099 -1.93091,0.587487 -2.9025,0.108934 z m 1.9426,-1.181605 c 1.3917,-0.581492 1.73782,-1.7493 0.83607,-2.820963 -0.45004,-0.534847 -0.69027,-0.64154 -1.44446,-0.64154 -0.72894,0 -0.98858,0.106704 -1.3368,0.549405 -0.91146,1.15873 -0.27627,2.86107 1.19051,3.190625 0.0324,0.0073 0.37196,-0.117618 0.75468,-0.277527 z"
     id="path2285" /></svg>
