<?xml version="1.0" encoding="UTF-8" standalone="no"?>
<svg
   version="1.1"
   id="Ebene_1"
   x="0"
   y="0"
   viewBox="0 0 680 120"
   width="680"
   height="120"
   xml:space="preserve"
   sodipodi:docname="viewerControlIcons-with-coordinates.svg"
   inkscape:version="1.1.2 (b8e25be833, 2022-02-05)"
   xmlns:inkscape="http://www.inkscape.org/namespaces/inkscape"
   xmlns:sodipodi="http://sodipodi.sourceforge.net/DTD/sodipodi-0.dtd"
   xmlns="http://www.w3.org/2000/svg"
   xmlns:svg="http://www.w3.org/2000/svg"><defs
     id="defs1176" /><sodipodi:namedview
     id="namedview1174"
     pagecolor="#ffffff"
     bordercolor="#666666"
     borderopacity="1.0"
     inkscape:pageshadow="2"
     inkscape:pageopacity="0.0"
     inkscape:pagecheckerboard="0"
     showgrid="false"
     inkscape:zoom="2.3979239"
     inkscape:cx="81.945887"
     inkscape:cy="154.30014"
     inkscape:window-width="1920"
     inkscape:window-height="1137"
     inkscape:window-x="-8"
     inkscape:window-y="-8"
     inkscape:window-maximized="1"
     inkscape:current-layer="layer5"
     showguides="true"
     inkscape:guide-bbox="true"
     inkscape:snap-grids="true"><sodipodi:guide
       position="677.25252,146.68975"
       orientation="0,-1"
       id="guide14082" /><sodipodi:guide
       position="715.61904,69.122656"
       orientation="1,0"
       id="guide14656" /></sodipodi:namedview><style
     id="style1001">.st0{fill:none;stroke:#278;stroke-width:2;stroke-linejoin:round;stroke-miterlimit:10}.st0,.st1,.st2{stroke-linecap:round}.st1{fill:none;stroke:#fff;stroke-width:1.5;stroke-linejoin:round;stroke-miterlimit:10}.st2{stroke:#278;stroke-width:2;stroke-dasharray:5}.st2,.st3,.st4{fill:none;stroke-linejoin:round;stroke-miterlimit:10}.st3{stroke:#c00;stroke-width:2;stroke-linecap:round}.st4{stroke:#fff;stroke-width:1.5}.st5{fill:#fff}.st6,.st9{fill:none;stroke:#fff;stroke-width:1.5;stroke-miterlimit:10}.st9{stroke-linecap:round}.st10,.st12{opacity:.5;fill:#fff;enable-background:new}.st12{opacity:.6}.st16{fill:none;stroke:#c00;stroke-width:1.5;stroke-linejoin:round;stroke-miterlimit:10}</style><g
     inkscape:groupmode="layer"
     id="layer4"
     inkscape:label="Hintergrund"
     style="display:inline;opacity:0.30232558"><path
       id="rect1800"
       style="fill:#000000;fill-opacity:1;stroke:#232e58;stroke-width:0.808251"
       d="M -1.142388,0.29824388 V 119.81141 H 681.49593 V 0.29824388 Z" /></g><g
     inkscape:groupmode="layer"
     id="layer5"
     inkscape:label="Koordinaten"><text
       xml:space="preserve"
       style="font-style:normal;font-weight:normal;font-size:13.3333px;line-height:1.25;font-family:sans-serif;fill:#000000;fill-opacity:1;stroke:none"
       x="12.510822"
       y="-4.1702752"
       id="text2990"><tspan
         sodipodi:role="line"
         id="tspan2988"
         x="12.510822"
         y="-4.1702752"
         style="font-size:13.3333px">0,0</tspan></text><text
       xml:space="preserve"
       style="font-style:normal;font-weight:normal;font-size:13.3333px;line-height:1.25;font-family:sans-serif;fill:#000000;fill-opacity:1;stroke:none"
       x="651.15808"
       y="144.92857"
       id="text2990-3"><tspan
         sodipodi:role="line"
         x="651.15808"
         y="144.92857"
         style="font-size:13.3333px"
         id="tspan8233">-640, -80</tspan></text><text
       xml:space="preserve"
       style="font-style:normal;font-weight:normal;font-size:13.3333px;line-height:1.25;font-family:sans-serif;fill:#000000;fill-opacity:1;stroke:none"
       x="697.04584"
       y="104.47693"
       id="text2990-3-0"><tspan
         sodipodi:role="line"
         x="697.04584"
         y="104.47693"
         style="font-size:13.3333px"
         id="tspan8233-0">-80</tspan></text><text
       xml:space="preserve"
       style="font-style:normal;font-weight:normal;font-size:13.3333px;line-height:1.25;font-family:sans-serif;fill:#000000;fill-opacity:1;stroke:none"
       x="697.04584"
       y="65.276352"
       id="text2990-3-7"><tspan
         sodipodi:role="line"
         x="697.04584"
         y="65.276352"
         style="font-size:13.3333px"
         id="tspan8233-3">-40</tspan></text><text
       xml:space="preserve"
       style="font-style:normal;font-weight:normal;font-size:13.3333px;line-height:1.25;font-family:sans-serif;fill:#000000;fill-opacity:1;stroke:none"
       x="708.96582"
       y="22.739555"
       id="text2990-3-6"><tspan
         sodipodi:role="line"
         x="708.96582"
         y="22.739555"
         style="font-size:13.3333px"
         id="tspan8233-2">0</tspan></text><text
       xml:space="preserve"
       style="font-style:normal;font-weight:normal;font-size:13.3333px;line-height:1.25;font-family:sans-serif;fill:#000000;fill-opacity:1;stroke:none"
       x="609.14679"
       y="145.72191"
       id="text2990-3-76"><tspan
         sodipodi:role="line"
         x="609.14679"
         y="145.72191"
         style="font-size:13.3333px"
         id="tspan8233-25">-600</tspan></text><text
       xml:space="preserve"
       style="font-style:normal;font-weight:normal;font-size:13.3333px;line-height:1.25;font-family:sans-serif;fill:#000000;fill-opacity:1;stroke:none"
       x="568.10834"
       y="145.72191"
       id="text2990-3-76-4"><tspan
         sodipodi:role="line"
         x="568.10834"
         y="145.72191"
         style="font-size:13.3333px"
         id="tspan8233-25-7">-560</tspan></text><text
       xml:space="preserve"
       style="font-style:normal;font-weight:normal;font-size:13.3333px;line-height:1.25;font-family:sans-serif;fill:#000000;fill-opacity:1;stroke:none"
       x="527.06989"
       y="145.72191"
       id="text2990-3-76-9"><tspan
         sodipodi:role="line"
         x="527.06989"
         y="145.72191"
         style="font-size:13.3333px"
         id="tspan8233-25-2">-520</tspan></text><text
       xml:space="preserve"
       style="font-style:normal;font-weight:normal;font-size:13.3333px;line-height:1.25;font-family:sans-serif;fill:#000000;fill-opacity:1;stroke:none"
       x="486.03146"
       y="145.72191"
       id="text2990-3-76-9-8"><tspan
         sodipodi:role="line"
         x="486.03146"
         y="145.72191"
         style="font-size:13.3333px"
         id="tspan8233-25-2-4">-480</tspan></text><text
       xml:space="preserve"
       style="font-style:normal;font-weight:normal;font-size:13.3333px;line-height:1.25;font-family:sans-serif;fill:#000000;fill-opacity:1;stroke:none"
       x="444.99298"
       y="145.72191"
       id="text2990-3-76-9-1"><tspan
         sodipodi:role="line"
         x="444.99298"
         y="145.72191"
         style="font-size:13.3333px"
         id="tspan8233-25-2-2">-440</tspan></text><text
       xml:space="preserve"
       style="font-style:normal;font-weight:normal;font-size:13.3333px;line-height:1.25;font-family:sans-serif;fill:#000000;fill-opacity:1;stroke:none"
       x="403.9545"
       y="145.72191"
       id="text2990-3-76-9-4"><tspan
         sodipodi:role="line"
         x="403.9545"
         y="145.72191"
         style="font-size:13.3333px"
         id="tspan8233-25-2-3">-400</tspan></text><text
       xml:space="preserve"
       style="font-style:normal;font-weight:normal;font-size:13.3333px;line-height:1.25;font-family:sans-serif;fill:#000000;fill-opacity:1;stroke:none"
       x="362.91602"
       y="145.72191"
       id="text2990-3-76-9-80"><tspan
         sodipodi:role="line"
         x="362.91602"
         y="145.72191"
         style="font-size:13.3333px"
         id="tspan8233-25-2-1">-360</tspan></text><text
       xml:space="preserve"
       style="font-style:normal;font-weight:normal;font-size:13.3333px;line-height:1.25;font-family:sans-serif;fill:#000000;fill-opacity:1;stroke:none"
       x="321.87753"
       y="145.72191"
       id="text2990-3-76-9-3"><tspan
         sodipodi:role="line"
         x="321.87753"
         y="145.72191"
         style="font-size:13.3333px"
         id="tspan8233-25-2-44">-320</tspan></text><text
       xml:space="preserve"
       style="font-style:normal;font-weight:normal;font-size:13.3333px;line-height:1.25;font-family:sans-serif;fill:#000000;fill-opacity:1;stroke:none"
       x="280.83905"
       y="145.72191"
       id="text2990-3-76-9-0"><tspan
         sodipodi:role="line"
         x="280.83905"
         y="145.72191"
         style="font-size:13.3333px"
         id="tspan8233-25-2-8">-280</tspan></text><text
       xml:space="preserve"
       style="font-style:normal;font-weight:normal;font-size:13.3333px;line-height:1.25;font-family:sans-serif;fill:#000000;fill-opacity:1;stroke:none"
       x="239.80057"
       y="145.72191"
       id="text2990-3-76-9-9"><tspan
         sodipodi:role="line"
         x="239.80057"
         y="145.72191"
         style="font-size:13.3333px"
         id="tspan8233-25-2-84">-240</tspan></text><text
       xml:space="preserve"
       style="font-style:normal;font-weight:normal;font-size:13.3333px;line-height:1.25;font-family:sans-serif;fill:#000000;fill-opacity:1;stroke:none"
       x="198.7621"
       y="145.72191"
       id="text2990-3-76-9-5"><tspan
         sodipodi:role="line"
         x="198.7621"
         y="145.72191"
         style="font-size:13.3333px"
         id="tspan8233-25-2-9">-200</tspan></text><text
       xml:space="preserve"
       style="font-style:normal;font-weight:normal;font-size:13.3333px;line-height:1.25;font-family:sans-serif;fill:#000000;fill-opacity:1;stroke:none"
       x="157.72363"
       y="145.72191"
       id="text2990-3-76-9-14"><tspan
         sodipodi:role="line"
         x="157.72363"
         y="145.72191"
         style="font-size:13.3333px"
         id="tspan8233-25-2-11">-160</tspan></text><text
       xml:space="preserve"
       style="font-style:normal;font-weight:normal;font-size:13.3333px;line-height:1.25;font-family:sans-serif;fill:#000000;fill-opacity:1;stroke:none"
       x="116.68515"
       y="145.72191"
       id="text2990-3-76-9-88"><tspan
         sodipodi:role="line"
         x="116.68515"
         y="145.72191"
         style="font-size:13.3333px"
         id="tspan8233-25-2-94">-120</tspan></text><text
       xml:space="preserve"
       style="font-style:normal;font-weight:normal;font-size:13.3333px;line-height:1.25;font-family:sans-serif;fill:#000000;fill-opacity:1;stroke:none"
       x="83.273331"
       y="145.72191"
       id="text2990-3-76-9-06"><tspan
         sodipodi:role="line"
         x="83.273331"
         y="145.72191"
         style="font-size:13.3333px"
         id="tspan8233-25-2-16">-80</tspan></text><text
       xml:space="preserve"
       style="font-style:normal;font-weight:normal;font-size:13.3333px;line-height:1.25;font-family:sans-serif;fill:#000000;fill-opacity:1;stroke:none"
       x="49.861515"
       y="145.72191"
       id="text2990-3-76-9-55"><tspan
         sodipodi:role="line"
         x="49.861515"
         y="145.72191"
         style="font-size:13.3333px"
         id="tspan8233-25-2-5">-40</tspan></text><text
       xml:space="preserve"
       style="font-style:normal;font-weight:normal;font-size:13.3333px;line-height:1.25;font-family:sans-serif;fill:#000000;fill-opacity:1;stroke:none"
       x="12.329052"
       y="145.72191"
       id="text2990-3-76-9-49"><tspan
         sodipodi:role="line"
         x="12.329052"
         y="145.72191"
         style="font-size:13.3333px"
         id="tspan8233-25-2-846">0</tspan></text></g><g
     inkscape:groupmode="layer"
     id="layer3"
     inkscape:label="Elemente"
     style="display:inline"><path
       class="st0"
       d="m 22.5,20.5 c 0.9,0.9 2.1,0.9 2.9,0.1 l 4,-4 c 1.2,-1.2 1.2,-3.1 0,-4.2 l -1.8,-1.8 c -1.2,-1.2 -3.1,-1.2 -4.2,0 l -4,4 c -0.8,0.8 -0.8,2.1 0,2.8 l 0.1,0.1 m -2,2 c -0.9,-0.9 -2.1,-0.9 -2.9,-0.1 l -4,4 c -1.2,1.2 -1.2,3.1 0,4.2 l 1.8,1.8 c 1.2,1.2 3.1,1.2 4.2,0 l 4,-4 c 0.8,-0.8 0.8,-2.1 0,-2.8 l -0.1,-0.1 m -4.4,1.4 7.8,-7.8"
       id="path1003"
       style="stroke:#232e58;stroke-opacity:1" /><circle
       class="st0"
       cx="219.7"
       cy="12.2"
       r="2.5999999"
       id="circle1005"
       style="stroke:#232e58;stroke-opacity:1" /><path
       class="st0"
       d="m 222.5,12.1 h 8.5 m -22,0 h 8"
       id="path1007"
       style="stroke:#232e58;stroke-opacity:1" /><circle
       class="st0"
       cx="214.60001"
       cy="20"
       r="2.5999999"
       id="circle1009"
       style="stroke:#232e58;stroke-opacity:1" /><path
       class="st0"
       d="m 217,20.1 h 14 m -22,0 h 3"
       id="path1011"
       style="stroke:#232e58;stroke-opacity:1" /><circle
       class="st0"
       cx="223.60001"
       cy="27.799999"
       r="2.5999999"
       id="circle1013"
       style="stroke:#232e58;stroke-opacity:1" /><path
       class="st0"
       d="m 226,27.6 h 5 m -22,0 h 12"
       id="path1015"
       style="stroke:#232e58;stroke-opacity:1" /><path
       class="st1"
       d="m 345.2,102.2 c 0.4,0.4 1,0.4 1.4,0 l 1.9,-1.9 c 0.6,-0.6 0.6,-1.5 0,-2.1 l -0.9,-0.9 c -0.6,-0.6 -1.5,-0.6 -2.1,0 l -1.9,1.9 c -0.4,0.4 -0.4,1 0,1.4 m -0.8,1.2 c -0.4,-0.4 -1,-0.4 -1.4,0 l -1.9,1.9 c -0.6,0.6 -0.6,1.5 0,2.1 l 0.9,0.9 c 0.6,0.6 1.5,0.6 2.1,0 l 1.9,-1.9 c 0.4,-0.4 0.4,-1 0,-1.4 m -2.3,0.5 3.8,-3.8 m 122.3,2.1 c 0.4,0.4 1,0.4 1.4,0 l 1.9,-1.9 c 0.6,-0.6 0.6,-1.5 0,-2.1 l -0.9,-0.9 c -0.6,-0.6 -1.5,-0.6 -2.1,0 l -1.9,1.9 c -0.4,0.4 -0.4,1 0,1.4 m -0.8,1.2 c -0.4,-0.4 -1,-0.4 -1.4,0 l -1.9,1.9 c -0.6,0.6 -0.6,1.5 0,2.1 l 0.9,0.9 c 0.6,0.6 1.5,0.6 2.1,0 l 1.9,-1.9 c 0.4,-0.4 0.4,-1 0,-1.4 m -2.3,0.5 3.8,-3.8 m -83.7,2.1 c 0.4,0.4 1,0.4 1.4,0 l 1.9,-1.9 c 0.6,-0.6 0.6,-1.5 0,-2.1 l -0.9,-0.9 c -0.6,-0.6 -1.5,-0.6 -2.1,0 l -1.9,1.9 c -0.4,0.4 -0.4,1 0,1.4 m -0.8,1.2 c -0.4,-0.4 -1,-0.4 -1.4,0 l -1.9,1.9 c -0.6,0.6 -0.6,1.5 0,2.1 l 0.9,0.9 c 0.6,0.6 1.5,0.6 2.1,0 l 1.9,-1.9 c 0.4,-0.4 0.4,-1 0,-1.4 m -2.3,0.5 3.8,-3.8"
       id="path1017" /><path
       class="st2"
       d="m 259.1,29.5 c -4,-0.5 -7.2,-3.9 -7.2,-8 0,-1.3 0.3,-2.5 0.9,-3.6"
       id="path1019"
       style="stroke:#232e58;stroke-opacity:1" /><path
       class="st0"
       d="m 259.1,13.4 h 0.9 c 4.5,0 8.1,3.6 8.1,8.1 0,3.6 -2.4,6.7 -5.7,7.7"
       id="path1021"
       style="stroke:#232e58;stroke-opacity:1" /><path
       class="st0"
       d="m 261.2,10.5 -4.2,3 4.2,3"
       id="path1023"
       style="stroke:#232e58;stroke-opacity:1" /><path
       class="st2"
       d="m 260.9,69.5 c 4,-0.5 7.2,-3.9 7.2,-8 0,-1.3 -0.3,-2.5 -0.9,-3.6"
       id="path1025"
       style="stroke:#232e58;stroke-opacity:1" /><path
       class="st0"
       d="M 260.9,53.4 H 260 c -4.5,0 -8.1,3.6 -8.1,8.1 0,3.6 2.4,6.7 5.7,7.7"
       id="path1027"
       style="stroke:#232e58;stroke-opacity:1" /><path
       class="st0"
       d="m 258.8,50.5 4.2,3 -4.2,3 m 91,-46.3 -7.4,7.4 M 342,10.2 h 7.8 V 18 m -19.6,11.8 7.4,-7.4 m 0.4,7.4 h -7.8 V 22 m 253.6,34.1 -7.4,7.4 M 576,56.1 h 7.8 v 7.8 M 300,9.6 v 10.1 m -5.5,-4.6 5.5,-5.5 5.5,5.5 m -9.2,15.3 v -7.8 l 7.4,7.3 v -7.3"
       id="path1029"
       style="stroke:#232e58;stroke-opacity:1" /><circle
       class="st0"
       cx="380"
       cy="20"
       r="10.5"
       id="circle1031"
       style="stroke:#232e58;stroke-opacity:1" /><path
       class="st0"
       d="m 375.5,20 h 9 m -4.5,4.5 v -9"
       id="path1033"
       style="stroke:#232e58;stroke-opacity:1" /><circle
       class="st0"
       cx="420"
       cy="20"
       r="10.5"
       id="circle1035"
       style="stroke:#232e58;stroke-opacity:1" /><path
       class="st0"
       d="m 415.5,20 h 9 M 70,25.7 v 1.7 C 70,28.8 68.8,30 67.4,30 H 52.6 C 51.2,30 50,28.8 50,27.4 V 25.7 M 60,25.6 V 10 m 6.4,9.2 -6.4,6.4 -6.4,-6.4 M 100,12.9 c 0,-2.1 5.7,-3.8 12.6,-3.8 v 18.1 c -7,0 -12.6,1.7 -12.6,3.8 0,-2.1 -5.7,-3.8 -12.6,-3.8 V 9 c 6.9,0 12.6,1.7 12.6,3.9 z m 0,0 V 30.8 M 97.3,15.3 C 95.5,14.6 93,14.1 90.2,13.9 m 7.1,4.7 C 95.5,17.9 93,17.4 90.2,17.2 m 7.1,4.7 C 95.5,21.2 93,20.7 90.2,20.5 m 7.1,4.7 C 95.5,24.5 93,24 90.2,23.8 m 12.5,-8.5 c 1.8,-0.7 4.3,-1.2 7.1,-1.4 m -7.1,4.7 c 1.8,-0.7 4.3,-1.2 7.1,-1.4 m -7.1,4.7 c 1.8,-0.7 4.3,-1.2 7.1,-1.4 m -7.1,4.7 c 1.8,-0.7 4.3,-1.2 7.1,-1.4 m 59.7,-13.7 h 4.7 v 4.7 h -4.7 z m 8.1,0 h 4.7 v 4.7 h -4.7 z m 8.2,0 h 4.7 v 4.7 h -4.7 z m -16.3,7.5 h 4.7 v 4.7 h -4.7 z m 8.1,0 h 4.7 v 4.7 h -4.7 z m 8.2,0 h 4.7 v 4.7 h -4.7 z m -16.3,7.6 h 4.7 v 4.7 h -4.7 z m 8.1,0 h 4.7 v 4.7 h -4.7 z m 8.2,0 h 4.7 v 4.7 h -4.7 z"
       id="path1037"
       style="stroke:#232e58;stroke-opacity:1" /><path
       class="st3"
       d="m 62.5,76.7 v 8.2 l -9.7,9.8 H 35.1 v 7.8 L 17.5,80 35.1,57.5 v 7.8 h 27.4 z"
       id="path1039"
       style="stroke:#232e58;stroke-opacity:1" /><path
       class="st3"
       d="M 52.4,94.2 V 84.6 H 62 M 103.4,63 v 4.4 L 96.6,60 103.4,52.6 V 57"
       id="path1041"
       style="stroke:#232e58;stroke-opacity:1" /><path
       class="st3"
       d="M 107.4,52.6 V 67.4 L 100.7,60 Z M 99.3,63 v 4.4 L 92.6,60 99.3,52.6 V 57 m 5.7,35.6 v 14.8 L 98.2,100 Z m -10,0 v 14.8 m 82.5,-30.7 v 8.2 l 9.7,9.8 h 17.7 v 7.8 L 222.5,80 204.9,57.5 v 7.8 h -27.4 z"
       id="path1043"
       style="stroke:#232e58;stroke-opacity:1" /><path
       class="st3"
       d="M 187.6,94.2 V 84.6 H 178 m -41.4,-21.7 -0.1,4.4 6.8,-7.4 -6.7,-7.4 v 4.4"
       id="path1045"
       style="stroke:#232e58;stroke-opacity:1" /><path
       class="st3"
       d="m 132.6,52.4 -0.1,14.9 6.8,-7.4 z m 8,10.5 v 4.4 l 6.8,-7.4 -6.7,-7.4 v 4.4 M 135,92.6 v 14.8 l 6.8,-7.4 z m 10,0 v 14.8"
       id="path1047"
       style="stroke:#232e58;stroke-opacity:1" /><path
       class="st1"
       d="m 377.1,68.4 h -3.4 c -0.8,0 -1.5,-0.7 -1.5,-1.5 V 53.4"
       id="path1049" /><path
       class="st1"
       d="m 386.2,51.6 h -12.5 c -0.8,0 -1.5,0.7 -1.5,1.5 0,0.8 0.7,1.5 1.5,1.5 h 12.5 v 2.3"
       id="path1051" /><circle
       class="st1"
       cx="383.20001"
       cy="64"
       r="4.4000001"
       id="circle1053" /><path
       class="st1"
       d="m 383.2,65.9 v -3.7 m -1.4,2.2 1.4,1.5 1.5,-1.5 M 343.2,51.6 h -9.8 c -0.8,0 -1.5,0.7 -1.5,1.5 V 67 c 0,0.8 0.7,1.5 1.5,1.5 h 4.4"
       id="path1055" /><circle
       class="st1"
       cx="343.5"
       cy="64"
       r="4.4000001"
       id="circle1057" /><path
       class="st1"
       d="m 343.5,65.9 v -3.7 m -1.5,2.2 1.5,1.5 1.5,-1.5 m -9.9,1.1 h 0.5 m -0.5,-10.8 h 7.6 m -7.6,2.7 h 4.3 m -4.3,2.7 h 1.6 m -1.6,2.7 h 0.3 m 41.7,45.6 h -3.4 c -0.8,0 -1.5,-0.7 -1.5,-1.5 V 93.4"
       id="path1059" /><path
       class="st1"
       d="m 386.2,91.6 h -12.5 c -0.8,0 -1.5,0.7 -1.5,1.5 0,0.8 0.7,1.5 1.5,1.5 h 12.5 m -43,-3 h -9.8 c -0.8,0 -1.5,0.7 -1.5,1.5 V 107 c 0,0.8 0.7,1.5 1.5,1.5 h 4.4 m -2.7,-3 h 0.5 m -0.5,-10.8 h 7.6 m -7.6,2.7 h 5.3 m -5.3,2.7 h 2.6 m -2.6,2.7 h 1.3 M 303,51.5 v 5 m -5.2,-5 v 17 m 9.6,-17 h -12.6 c -2.5,0 -4.5,2 -4.5,4.5 0,2.5 2,4.5 4.5,4.5 h 3"
       id="path1061" /><circle
       class="st1"
       cx="305.10001"
       cy="63.700001"
       r="4.4000001"
       id="circle1063" /><path
       class="st1"
       d="m 305.1,65.6 v -3.7 m -1.4,2.2 1.4,1.5 1.5,-1.5"
       id="path1065" /><path
       class="st0"
       d="m 272,98.2 v 4.5 l -5.3,5.3 H 257 v 4.3 L 247.4,100 257,87.7 V 92 h 15 z"
       id="path1067"
       style="stroke:#232e58;stroke-opacity:1" /><path
       class="st0"
       d="m 267,108 v -5 h 5 m 16,-4.8 v 4.5 l 5.3,5.3 h 9.7 v 4.3 L 312.6,100 303,87.7 V 92 h -15 z"
       id="path1069"
       style="stroke:#232e58;stroke-opacity:1" /><path
       class="st0"
       d="m 293,108 v -5 h -5"
       id="path1071"
       style="stroke:#232e58;stroke-opacity:1" /><path
       class="st4"
       d="M 428,52.7 411.6,59.5 418,62 Z"
       id="path1073" /><path
       class="st4"
       d="M 428,52.7 425.1,65.9 418,62 Z M 418,62 v 5.7 l 2.5,-4.3"
       id="path1075" /><path
       class="st1"
       d="m 428.2,102.2 c 0.4,0.4 1,0.4 1.4,0 l 1.9,-1.9 c 0.6,-0.6 0.6,-1.5 0,-2.1 l -0.9,-0.9 c -0.6,-0.6 -1.5,-0.6 -2.1,0 l -1.9,1.9 c -0.4,0.4 -0.4,1 0,1.4 m -0.8,1.2 c -0.4,-0.4 -1,-0.4 -1.4,0 l -1.9,1.9 c -0.6,0.6 -0.6,1.5 0,2.1 l 0.9,0.9 c 0.6,0.6 1.5,0.6 2.1,0 l 1.9,-1.9 c 0.4,-0.4 0.4,-1 0,-1.4 m -2.3,0.5 3.8,-3.8"
       id="path1077" /><ellipse
       class="st1"
       cx="420.39999"
       cy="93.800003"
       rx="7.9000001"
       ry="3.3"
       id="ellipse1079" /><path
       class="st1"
       d="m 421.7,100.5 h -1.2 c -4.4,0 -7.9,-1.5 -7.9,-3.3 m 5.9,7 c -3.4,-0.4 -6,-1.7 -6,-3.2"
       id="path1081" /><path
       class="st1"
       d="m 420.4,108 c -4.4,0 -7.9,-1.5 -7.9,-3.3 V 93.8 m 48.5,7.3 h -8.3 v -8.9 h 5 m 3.6,0 h 5 v 2"
       id="path1083" /><path
       class="st1"
       d="m 457.7,91.5 h 3.7 V 93 h -3.7 z m 3.2,9.6 h -8.2 c -0.4,0 -0.7,0.3 -0.7,0.7 0,0.4 0.3,0.7 0.7,0.7 h 6.4 m 0,0.1 v 4.4 m -4.5,0 2.2,-4.4 M 459.1,90 v 1.5 m 9.2,-31.7 h -7 v -8.7 h 4.4 l 2.6,2.6 z"
       id="path1085" /><path
       class="st1"
       d="m 465.7,51.1 v 2.6 h 2.6 m 0,17.5 h -7 v -8.8 h 4.4 l 2.6,2.6 z"
       id="path1087" /><path
       class="st1"
       d="M 465.7,62.4 V 65 h 2.6 M 452.6,51.1 v 0.8 m 0,4.4 v 0.9 m 0,-3.5 v 0.9 h 0.8 m -0.8,4.3 v 0.9 m 0,1.8 v 0.8 m 0,1.8 V 65 m 0,1.8 v 0.9 h 0.8 m 1.8,-13.1 h 0.9 m 1.7,0 h 0.9 m 1.7,0 h 0.9 m -6.1,13.1 h 0.9 m 1.7,0 h 0.9 m 1.7,0 h 0.9"
       id="path1089" /><circle
       class="st1"
       cx="459.89999"
       cy="20"
       r="8"
       id="circle1091" /><path
       class="st1"
       d="m 458.3,24.4 h 3.9 M 459,18.6 h 1.2 V 24"
       id="path1093" /><path
       class="st4"
       d="m 459.9,15.7 c -0.2,0 -0.3,0.1 -0.3,0.3 0,0.2 0.1,0.3 0.3,0.3 0.2,0 0.3,-0.1 0.3,-0.3 0,-0.2 -0.1,-0.3 -0.3,-0.3 z"
       id="path1095" /><circle
       class="st5"
       cx="499.60001"
       cy="20"
       r="8"
       id="circle1097" /><path
       class="st5"
       d="m 499.6,26.5 v -13 c 3.6,0 6.5,2.9 6.5,6.5 0,3.6 -2.9,6.5 -6.5,6.5 z"
       id="path1099" /><path
       class="st6"
       d="m 490,52.3 h 19.2 V 69.8 H 490 Z"
       id="path1101" /><path
       class="st5"
       d="m 490.8,52.5 h 4.4 V 70 h -4.4 z"
       id="path1103" /><path
       d="m 495.2,52.5 h 4.4 V 70 h -4.4 z"
       opacity="0.66"
       fill="#ffffff"
       id="path1105" /><path
       d="M 499.6,52.5 H 504 V 70 h -4.4 z"
       opacity="0.33"
       fill="#ffffff"
       id="path1107" /><path
       class="st9"
       d="m 499.6,90.3 v 0.9 m 0,17.6 v 0.9"
       id="path1109" /><circle
       class="st5"
       cx="499.60001"
       cy="100"
       r="5.5"
       id="circle1111" /><path
       class="st9"
       d="m 506.4,93.2 -0.5,0.6 m -12.5,12.4 -0.6,0.6 m 13.6,0 -0.5,-0.6 m -12.5,-12.4 -0.6,-0.6 m 16.5,6.8 h -0.9 m -17.6,0 h -0.9"
       id="path1113" /><path
       class="st5"
       d="m 531.3,12 h 3.8 v 3.8 h -3.8 z"
       id="path1115" /><path
       class="st10"
       d="m 537.4,12 h 3.8 v 3.8 h -3.8 z"
       id="path1117" /><path
       d="m 543.5,12 h 3.8 v 3.8 h -3.8 z"
       opacity="0.3"
       fill="#ffffff"
       id="path1119" /><path
       class="st12"
       d="m 531.3,18.1 h 3.8 v 3.8 h -3.8 z"
       id="path1121" /><path
       d="m 537.4,18.1 h 3.8 v 3.8 h -3.8 z"
       opacity="0.2"
       fill="#ffffff"
       id="path1123" /><path
       class="st12"
       d="m 543.5,18.1 h 3.8 v 3.8 h -3.8 z"
       id="path1125" /><path
       d="m 531.3,24.2 h 3.8 V 28 h -3.8 z"
       opacity="0.4"
       fill="#ffffff"
       id="path1127" /><path
       class="st10"
       d="m 537.4,24.2 h 3.8 V 28 h -3.8 z"
       id="path1129" /><path
       class="st5"
       d="m 543.5,24.2 h 3.8 V 28 h -3.8 z"
       id="path1131" /><path
       class="st6"
       d="m 532.1,54.5 h 14.5 v 13.1 h -14.5 z"
       id="path1133" /><path
       class="st1"
       d="m 540.8,92.5 -3.4,2.4 3.4,2.4"
       id="path1135" /><path
       class="st1"
       d="m 539.3,94.7 c 3.5,0 6.4,2.9 6.4,6.4 0,3.5 -2.9,6.4 -6.4,6.4 -3.5,0 -6.4,-2.9 -6.4,-6.4"
       id="path1137" /><path
       class="st5"
       d="M 532.1,67.7 V 54.5 h 14.5"
       id="path1139" /><circle
       class="st0"
       cx="577.40002"
       cy="18.6"
       r="8.1999998"
       id="circle1141"
       style="stroke:#232e58;stroke-opacity:1" /><path
       class="st0"
       d="m 589.2,30.5 -6.1,-6.1 M 621.8,99 h -11 m 5.9,-5.3 5.5,5.5 -5.5,5.5"
       id="path1143"
       style="stroke:#232e58;stroke-opacity:1" /><path
       class="st0"
       d="M 613,92.9 V 88 h 10.7 l 5.3,5.3 V 110 h -16 v -5"
       id="path1145"
       style="stroke:#232e58;stroke-opacity:1" /><path
       class="st0"
       d="m 629,93 h -5 v -5"
       id="path1147"
       style="stroke:#232e58;stroke-opacity:1" /><path
       d="m 624.3,24.3 c -1.6,1.6 -3.9,2.6 -6.4,2.6 -5,0 -9,-4 -9,-9 0,-5 4,-9 9,-9 5,0 9,4 9,9 0,2.5 -1,4.8 -2.6,6.4"
       fill="none"
       stroke="#278"
       stroke-width="1.895"
       stroke-linejoin="round"
       stroke-miterlimit="10"
       id="path1149"
       style="stroke:#232e58;stroke-opacity:1" /><path
       class="st0"
       d="m 624.5,24.5 6.4,6.4 m -19,-12 v -3 h 12 v 3 m -6,11.1 v 2 m 0,-16.1 v 8 m -2.5,8.1 h 5"
       id="path1151"
       style="stroke:#232e58;stroke-opacity:1" /><g
       id="g1159"
       style="stroke:#232e58;stroke-opacity:1"><path
         class="st16"
         d="m 589.4,104.5 -5,2 -2,5 -14,-14 v -7 h 7 z"
         id="path1153"
         style="stroke:#232e58;stroke-opacity:1" /><path
         fill="none"
         stroke="#c00"
         stroke-width="1.5"
         stroke-linecap="round"
         stroke-linejoin="round"
         stroke-miterlimit="10"
         d="m 571.4,87.5 h 7 l 13,13 -1.5,0.5"
         id="path1155"
         style="stroke:#232e58;stroke-opacity:1" /><circle
         class="st16"
         cx="572.90002"
         cy="95"
         r="1.5"
         id="circle1157"
         style="stroke:#232e58;stroke-opacity:1" /></g><path
       class="st0"
       d="m 624.6,69.4 -9.4,-9.4 9.4,-9.4"
       id="path1161"
       style="stroke:#232e58;stroke-opacity:1" /><g
       id="g1167"
       style="fill:none;fill-opacity:1;stroke:#232e58;stroke-width:1.00157;stroke-miterlimit:4;stroke-dasharray:none;stroke-opacity:1"><path
         class="st0"
         d="m 144.7,23.5 c -1.7,1.7 -4.1,2.8 -6.7,2.8 -5.2,0 -9.5,-4.3 -9.5,-9.5 0,-5.2 4.3,-9.5 9.5,-9.5 5.2,0 9.5,4.3 9.5,9.5 0,2.6 -1.1,5 -2.8,6.7 m 0,0 6.8,6.8"
         id="path1163"
         style="fill:none;fill-opacity:1;stroke:#232e58;stroke-width:1.00157;stroke-miterlimit:4;stroke-dasharray:none;stroke-opacity:1" /><path
         class="st0"
         d="m 132.5,18.3 v -3 h 12 v 3 m -6,12 v 2 m 0,-17 v 7 m -2.5,10 h 5"
         id="path1165"
         style="fill:none;fill-opacity:1;stroke:#232e58;stroke-width:1.00157;stroke-miterlimit:4;stroke-dasharray:none;stroke-opacity:1" /></g><g
       id="g1171"><path
         class="st1"
         d="m 660.2,93.6 v 15.1 m -2.9,0 h 5.8 m -13.6,-9 3.4,-8 3.4,8 m 5.3,-7.6 c 0,0.8 -0.7,1.5 -1.5,1.5 -0.8,0 -1.5,-0.7 -1.5,-1.5 0,-0.8 0.7,-1.5 1.5,-1.5 0.9,0.1 1.5,0.7 1.5,1.5 z m -8.7,11.2 c 1.9,0 3.4,-1.5 3.4,-3.6 h -6.8 c 0,2.1 1.5,3.6 3.4,3.6 z m 18.9,-3.6 -3.4,-8 -3.4,8 m 3.4,3.6 c -1.9,0 -3.4,-1.5 -3.4,-3.6 h 6.8 c 0,2.1 -1.5,3.6 -3.4,3.6 z m -9.6,-11.6 h -7.4 m 10.2,0 h 8.3"
         id="path1169" /></g><path
       style="fill:none;fill-opacity:1;stroke:#232e58;stroke-width:0.208842;stroke-miterlimit:4;stroke-dasharray:none;stroke-opacity:1"
       d="m 218.00533,15.161692 c -0.46958,-0.265955 -1.03171,-0.8302 -1.29491,-1.29978 l -0.46511,-0.829805 -3.89558,-0.104257 c -3.41381,-0.09136 -3.924,-0.149385 -4.12538,-0.469156 -0.1674,-0.265825 -0.16736,-0.463973 1.7e-4,-0.729798 0.2036,-0.323067 0.68164,-0.37137 4.16987,-0.42135 l 3.93991,-0.05645 0.41636,-0.772304 c 0.61157,-1.1343735 1.80974,-1.7582808 3.18782,-1.6599459 1.23476,0.088108 1.96946,0.5279495 2.71603,1.6260119 l 0.48315,0.710625 4.18602,0.104257 c 3.69074,0.09192 4.21321,0.147431 4.41585,0.469156 0.16746,0.265861 0.16742,0.463937 -1.4e-4,0.729798 -0.2045,0.324467 -0.69273,0.371145 -4.40631,0.42127 l -4.17633,0.05637 -0.24721,0.596802 c -0.77606,1.87358 -3.10568,2.647184 -4.90421,1.628555 z m 2.96707,-1.940549 c 0.60361,-0.675537 0.59524,-1.374544 -0.0251,-2.095735 -0.36823,-0.428089 -0.68461,-0.574614 -1.24072,-0.574614 -1.05867,0 -1.60124,0.558162 -1.60124,1.647258 0,1.683207 1.72668,2.299361 2.86706,1.023091 z"
       id="path2246" /><path
       style="fill:none;fill-opacity:1;stroke:#232e58;stroke-width:0.208842;stroke-miterlimit:4;stroke-dasharray:none;stroke-opacity:1"
       d="m 218.33158,15.069793 c -0.39163,-0.192899 -0.99849,-0.757085 -1.34857,-1.253747 -0.35008,-0.496662 -0.82722,-0.943351 -1.0603,-0.992642 -0.23309,-0.04929 -1.94389,-0.116328 -3.80178,-0.148972 -2.355,-0.04138 -3.4569,-0.138285 -3.63856,-0.319995 -0.58962,-0.589764 0.1793,-0.75485 4.0685,-0.8735 l 3.83317,-0.11694 0.71292,-0.938312 c 0.85566,-1.1261846 1.96489,-1.5995559 3.20763,-1.3688818 0.61212,0.1136201 1.09207,0.430138 1.86522,1.2300898 l 1.04103,1.077104 4.01541,0.114663 c 4.06899,0.116192 4.85441,0.276616 4.26075,0.870272 -0.17758,0.177578 -1.50552,0.281464 -4.36836,0.341743 l -4.11323,0.0866 -0.42393,0.857211 c -0.29941,0.605405 -0.6952,0.995027 -1.3474,1.326368 -1.09459,0.556099 -1.93091,0.587487 -2.9025,0.108934 z m 1.9426,-1.181605 c 1.3917,-0.581492 1.73782,-1.7493 0.83607,-2.820963 -0.45004,-0.534847 -0.69027,-0.64154 -1.44446,-0.64154 -0.72894,0 -0.98858,0.106704 -1.3368,0.549405 -0.91146,1.15873 -0.27627,2.86107 1.19051,3.190625 0.0324,0.0073 0.37196,-0.117618 0.75468,-0.277527 z"
       id="path2285" /></g></svg>
